FacadeStencil-Regular.ufo
<glyph name="exclam" format="2">
  <advance width="480"/>
  <unicode hex="0021"/>
  <outline>
    <contour>
      <point x="192" y="300" type="line"/>
      <point x="288" y="300" type="line"/>
      <point x="294" y="900" type="line"/>
      <point x="186" y="900" type="line"/>
    </contour>
    <contour>
      <point x="240" y="-12" type="curve" smooth="yes"/>
      <point x="283" y="-12"/>
      <point x="315" y="21"/>
      <point x="315" y="63" type="curve" smooth="yes"/>
      <point x="315" y="105"/>
      <point x="283" y="138"/>
      <point x="240" y="138" type="curve" smooth="yes"/>
      <point x="198" y="138"/>
      <point x="165" y="105"/>
      <point x="165" y="63" type="curve" smooth="yes"/>
      <point x="165" y="21"/>
      <point x="198" y="-12"/>
    </contour>
  </outline>
</glyph>
<glyph name="parenright" format="2">
  <advance width="480"/>
  <unicode hex="0029"/>
  <outline>
    <contour>
      <point x="84" y="-180" type="curve"/>
      <point x="205" y="-180" type="line"/>
      <point x="307" y="-13"/>
      <point x="366" y="182"/>
      <point x="366" y="390" type="curve" smooth="yes"/>
      <point x="366" y="598"/>
      <point x="307" y="793"/>
      <point x="205" y="960" type="curve"/>
      <point x="84" y="960" type="line"/>
      <point x="195" y="799"/>
      <point x="258" y="604"/>
      <point x="258" y="390" type="curve" smooth="yes"/>
      <point x="258" y="176"/>
      <point x="195" y="-19"/>
    </contour>
  </outline>
</glyph>
<glyph name="six" format="2">
  <advance width="750"/>
  <unicode hex="0036"/>
  <outline>
    <contour>
      <point x="350" y="-11" type="curve"/>
      <point x="350" y="92" type="line"/>
      <point x="251" y="107"/>
      <point x="176" y="192"/>
      <point x="176" y="295" type="curve" smooth="yes"/>
      <point x="176" y="341"/>
      <point x="188" y="385"/>
      <point x="221" y="445" type="curve" smooth="yes"/>
      <point x="468" y="900" type="line"/>
      <point x="344" y="900" type="line"/>
      <point x="103" y="440" type="line" smooth="yes"/>
      <point x="80" y="396"/>
      <point x="66" y="345"/>
      <point x="66" y="293" type="curve" smooth="yes"/>
      <point x="66" y="131"/>
      <point x="190" y="3"/>
    </contour>
    <contour>
      <point x="414" y="-11" type="line"/>
      <point x="573" y="4"/>
      <point x="696" y="131"/>
      <point x="696" y="294" type="curve" smooth="yes"/>
      <point x="696" y="485"/>
      <point x="548" y="592"/>
      <point x="372" y="592" type="curve"/>
      <point x="317" y="490" type="line"/>
      <point x="338" y="496"/>
      <point x="359" y="500"/>
      <point x="382" y="500" type="curve" smooth="yes"/>
      <point x="498" y="500"/>
      <point x="588" y="407"/>
      <point x="588" y="295" type="curve" smooth="yes"/>
      <point x="588" y="192"/>
      <point x="512" y="106"/>
      <point x="414" y="92" type="curve"/>
    </contour>
  </outline>
</glyph>
<glyph name="seven" format="2">
  <advance width="750"/>
  <unicode hex="0037"/>
  <outline>
    <contour>
      <point x="128" y="0" type="line"/>
      <point x="250" y="0" type="line"/>
      <point x="695" y="900" type="line"/>
      <point x="577" y="900" type="line"/>
    </contour>
    <contour>
      <point x="96" y="798" type="line"/>
      <point x="453" y="798" type="line"/>
      <point x="505" y="900" type="line"/>
      <point x="96" y="900" type="line"/>
    </contour>
  </outline>
</glyph>
<glyph name="G" format="2">
  <advance width="940"/>
  <unicode hex="0047"/>
  <anchor x="529" y="0" name="bottom"/>
  <anchor x="783" y="270" name="center"/>
  <anchor x="530" y="900" name="top"/>
  <outline>
    <contour>
      <point x="529" y="-18" type="curve" smooth="yes"/>
      <point x="577" y="-18"/>
      <point x="623" y="-12"/>
      <point x="664" y="0" type="curve"/>
      <point x="664" y="115" type="line"/>
      <point x="625" y="98"/>
      <point x="579" y="90"/>
      <point x="529" y="90" type="curve" smooth="yes"/>
      <point x="330" y="90"/>
      <point x="178" y="254"/>
      <point x="178" y="450" type="curve" smooth="yes"/>
      <point x="178" y="639"/>
      <point x="316" y="793"/>
      <point x="496" y="809" type="curve"/>
      <point x="496" y="917" type="line"/>
      <point x="253" y="901"/>
      <point x="60" y="698"/>
      <point x="60" y="450" type="curve" smooth="yes"/>
      <point x="60" y="192"/>
      <point x="268" y="-18"/>
    </contour>
    <contour>
      <point x="728" y="19" type="line"/>
      <point x="768" y="36"/>
      <point x="806" y="57"/>
      <point x="838" y="84" type="curve"/>
      <point x="838" y="480" type="line"/>
      <point x="480" y="480" type="line"/>
      <point x="480" y="378" type="line"/>
      <point x="728" y="378" type="line"/>
    </contour>
    <contour>
      <point x="825" y="647" type="curve"/>
      <point x="858" y="785" type="line"/>
      <point x="779" y="861"/>
      <point x="675" y="910"/>
      <point x="564" y="917" type="curve"/>
      <point x="564" y="809" type="line"/>
      <point x="672" y="800"/>
      <point x="768" y="737"/>
    </contour>
  </outline>
</glyph>
<glyph name="Z" format="2">
  <advance width="660"/>
  <unicode hex="005A"/>
  <anchor x="315" y="0" name="bottom"/>
  <anchor x="324" y="450" name="center"/>
  <anchor x="345" y="900" name="top"/>
  <outline>
    <contour>
      <point x="42" y="0" type="line"/>
      <point x="160" y="0" type="line"/>
      <point x="606" y="900" type="line"/>
      <point x="488" y="900" type="line"/>
    </contour>
    <contour>
      <point x="226" y="0" type="line"/>
      <point x="588" y="0" type="line"/>
      <point x="588" y="102" type="line"/>
      <point x="277" y="102" type="line"/>
    </contour>
    <contour>
      <point x="84" y="798" type="line"/>
      <point x="371" y="798" type="line"/>
      <point x="421" y="900" type="line"/>
      <point x="84" y="900" type="line"/>
    </contour>
  </outline>
</glyph>
<glyph name="g" format="2">
  <advance width="760"/>
  <unicode hex="0067"/>
  <anchor x="381" y="-300" name="bottom"/>
  <anchor x="614" y="300" name="center"/>
  <anchor x="381" y="600" name="top"/>
  <outline>
    <contour>
      <point x="353" y="-8" type="curve" smooth="yes"/>
      <point x="405" y="-8"/>
      <point x="453" y="5"/>
      <point x="496" y="28" type="curve"/>
      <point x="496" y="136" type="line"/>
      <point x="460" y="107"/>
      <point x="416" y="90"/>
      <point x="367" y="90" type="curve" smooth="yes"/>
      <point x="253" y="90"/>
      <point x="162" y="184"/>
      <point x="162" y="300" type="curve" smooth="yes"/>
      <point x="162" y="416"/>
      <point x="253" y="510"/>
      <point x="367" y="510" type="curve" smooth="yes"/>
      <point x="416" y="510"/>
      <point x="460" y="493"/>
      <point x="496" y="464" type="curve"/>
      <point x="496" y="572" type="line"/>
      <point x="453" y="595"/>
      <point x="405" y="608"/>
      <point x="353" y="608" type="curve" smooth="yes"/>
      <point x="188" y="608"/>
      <point x="54" y="470"/>
      <point x="54" y="300" type="curve" smooth="yes"/>
      <point x="54" y="130"/>
      <point x="188" y="-8"/>
    </contour>
    <contour>
      <point x="401" y="-312" type="line"/>
      <point x="545" y="-289"/>
      <point x="664" y="-177"/>
      <point x="664" y="0" type="curve" smooth="yes"/>
      <point x="664" y="600" type="line"/>
      <point x="556" y="600" type="line"/>
      <point x="556" y="6" type="line" smooth="yes"/>
      <point x="556" y="-104"/>
      <point x="494" y="-186"/>
      <point x="401" y="-210" type="curve"/>
    </contour>
    <contour>
      <point x="337" y="-312" type="curve"/>
      <point x="337" y="-212" type="line"/>
      <point x="248" y="-212"/>
      <point x="182" y="-173"/>
      <point x="143" y="-115" type="curve"/>
      <point x="113" y="-237" type="line"/>
      <point x="171" y="-284"/>
      <point x="246" y="-312"/>
    </contour>
  </outline>
</glyph>
<glyph name="x" format="2">
  <advance width="600"/>
  <unicode hex="0078"/>
  <outline>
    <contour>
      <point x="448" y="0" type="line"/>
      <point x="576" y="0" type="line"/>
      <point x="173" y="600" type="line"/>
      <point x="47" y="600" type="line"/>
    </contour>
    <contour>
      <point x="24" y="0" type="line"/>
      <point x="148" y="0" type="line"/>
      <point x="258" y="177" type="line"/>
      <point x="200" y="265" type="line"/>
    </contour>
    <contour>
      <point x="400" y="370" type="line"/>
      <point x="553" y="600" type="line"/>
      <point x="429" y="600" type="line"/>
      <point x="341" y="457" type="line"/>
    </contour>
  </outline>
</glyph>
<glyph name="braceleft" format="2">
  <advance width="480"/>
  <unicode hex="007B"/>
  <outline>
    <contour>
      <point x="410" y="-186" type="curve"/>
      <point x="432" y="-96" type="line"/>
      <point x="333" y="-96"/>
      <point x="245" y="-64"/>
      <point x="245" y="89" type="curve" smooth="yes"/>
      <point x="245" y="145"/>
      <point x="257" y="191"/>
      <point x="257" y="239" type="curve" smooth="yes"/>
      <point x="257" y="357"/>
      <point x="183" y="405"/>
      <point x="84" y="405" type="curve"/>
      <point x="84" y="375" type="line"/>
      <point x="183" y="375"/>
      <point x="257" y="423"/>
      <point x="257" y="541" type="curve" smooth="yes"/>
      <point x="257" y="589"/>
      <point x="245" y="635"/>
      <point x="245" y="691" type="curve" smooth="yes"/>
      <point x="245" y="844"/>
      <point x="333" y="876"/>
      <point x="432" y="876" type="curve"/>
      <point x="410" y="966" type="line"/>
      <point x="266" y="966"/>
      <point x="143" y="881"/>
      <point x="143" y="700" type="curve" smooth="yes"/>
      <point x="143" y="644"/>
      <point x="155" y="592"/>
      <point x="155" y="544" type="curve" smooth="yes"/>
      <point x="155" y="459"/>
      <point x="117" y="426"/>
      <point x="42" y="390" type="curve"/>
      <point x="117" y="354"/>
      <point x="155" y="321"/>
      <point x="155" y="236" type="curve" smooth="yes"/>
      <point x="155" y="188"/>
      <point x="143" y="136"/>
      <point x="143" y="80" type="curve" smooth="yes"/>
      <point x="143" y="-101"/>
      <point x="266" y="-186"/>
    </contour>
  </outline>
</glyph>
<glyph name="sterling" format="2">
  <advance width="750"/>
  <unicode hex="00A3"/>
  <outline>
    <contour>
      <point x="233" y="444" type="curve"/>
      <point x="338" y="444" type="line"/>
      <point x="328" y="504"/>
      <point x="319" y="563"/>
      <point x="319" y="611" type="curve" smooth="yes"/>
      <point x="319" y="723"/>
      <point x="367" y="786"/>
      <point x="432" y="804" type="curve"/>
      <point x="432" y="909" type="line"/>
      <point x="308" y="889"/>
      <point x="211" y="784"/>
      <point x="211" y="620" type="curve" smooth="yes"/>
      <point x="211" y="566"/>
      <point x="221" y="505"/>
    </contour>
    <contour>
      <point x="151" y="0" type="curve"/>
      <point x="276" y="0" type="line"/>
      <point x="333" y="95" type="line" smooth="yes"/>
      <point x="353" y="128"/>
      <point x="366" y="169"/>
      <point x="366" y="226" type="curve" smooth="yes"/>
      <point x="366" y="264"/>
      <point x="360" y="308"/>
      <point x="353" y="354" type="curve"/>
      <point x="250" y="354" type="line"/>
      <point x="258" y="309"/>
      <point x="264" y="265"/>
      <point x="264" y="225" type="curve" smooth="yes"/>
      <point x="264" y="129"/>
      <point x="230" y="84"/>
    </contour>
    <contour>
      <point x="348" y="0" type="line"/>
      <point x="660" y="0" type="line"/>
      <point x="660" y="96" type="line"/>
      <point x="405" y="96" type="line"/>
    </contour>
    <contour>
      <point x="90" y="408" type="line"/>
      <point x="600" y="408" type="line"/>
      <point x="600" y="492" type="line"/>
      <point x="90" y="492" type="line"/>
    </contour>
    <contour>
      <point x="631" y="692" type="curve"/>
      <point x="665" y="830" type="line"/>
      <point x="619" y="878"/>
      <point x="562" y="908"/>
      <point x="492" y="912" type="curve"/>
      <point x="492" y="809" type="line"/>
      <point x="556" y="802"/>
      <point x="601" y="755"/>
    </contour>
  </outline>
</glyph>
<glyph name="currency" format="2">
  <advance width="750"/>
  <unicode hex="00A4"/>
  <outline>
    <contour>
      <point x="639" y="120" type="line"/>
      <point x="705" y="186" type="line"/>
      <point x="628" y="263" type="line"/>
      <point x="668" y="315"/>
      <point x="691" y="380"/>
      <point x="691" y="450" type="curve" smooth="yes"/>
      <point x="691" y="521"/>
      <point x="667" y="586"/>
      <point x="627" y="638" type="curve"/>
      <point x="705" y="716" type="line"/>
      <point x="641" y="780" type="line"/>
      <point x="563" y="702" type="line"/>
      <point x="518" y="735"/>
      <point x="463" y="755"/>
      <point x="405" y="761" type="curve"/>
      <point x="405" y="658" type="line"/>
      <point x="506" y="643"/>
      <point x="583" y="556"/>
      <point x="583" y="450" type="curve" smooth="yes"/>
      <point x="583" y="344"/>
      <point x="506" y="257"/>
      <point x="405" y="242" type="curve"/>
      <point x="405" y="139" type="line"/>
      <point x="463" y="145"/>
      <point x="516" y="165"/>
      <point x="561" y="198" type="curve"/>
    </contour>
    <contour>
      <point x="109" y="120" type="line"/>
      <point x="187" y="198" type="line"/>
      <point x="232" y="166"/>
      <point x="286" y="145"/>
      <point x="345" y="139" type="curve"/>
      <point x="345" y="242" type="line"/>
      <point x="243" y="257"/>
      <point x="167" y="344"/>
      <point x="167" y="450" type="curve" smooth="yes"/>
      <point x="167" y="556"/>
      <point x="243" y="643"/>
      <point x="345" y="658" type="curve"/>
      <point x="345" y="761" type="line"/>
      <point x="287" y="755"/>
      <point x="233" y="734"/>
      <point x="189" y="702" type="curve"/>
      <point x="111" y="780" type="line"/>
      <point x="45" y="714" type="line"/>
      <point x="122" y="637" type="line"/>
      <point x="82" y="585"/>
      <point x="59" y="520"/>
      <point x="59" y="450" type="curve" smooth="yes"/>
      <point x="59" y="379"/>
      <point x="83" y="314"/>
      <point x="123" y="262" type="curve"/>
      <point x="45" y="184" type="line"/>
    </contour>
  </outline>
</glyph>
<glyph name="yen" format="2">
  <advance width="750"/>
  <unicode hex="00A5"/>
  <anchor x="53" y="900" name="topleft"/>
  <outline>
    <contour>
      <point x="272" y="514" type="line"/>
      <point x="478" y="514" type="line"/>
      <point x="702" y="900" type="line"/>
      <point x="582" y="900" type="line"/>
      <point x="433" y="638" type="line" smooth="yes"/>
      <point x="410" y="598"/>
      <point x="391" y="564"/>
      <point x="371" y="509" type="curve"/>
      <point x="389" y="509" type="line"/>
      <point x="369" y="563"/>
      <point x="350" y="599"/>
      <point x="328" y="638" type="curve" smooth="yes"/>
      <point x="180" y="900" type="line"/>
      <point x="48" y="900" type="line"/>
    </contour>
    <contour>
      <point x="318" y="0" type="line"/>
      <point x="432" y="0" type="line"/>
      <point x="432" y="264" type="line"/>
      <point x="318" y="264" type="line"/>
    </contour>
    <contour>
      <point x="90" y="318" type="line"/>
      <point x="660" y="318" type="line"/>
      <point x="660" y="402" type="line"/>
      <point x="90" y="402" type="line"/>
    </contour>
    <contour>
      <point x="90" y="498" type="line"/>
      <point x="660" y="498" type="line"/>
      <point x="660" y="582" type="line"/>
      <point x="451" y="582" type="line"/>
      <point x="380" y="522" type="line"/>
      <point x="303" y="582" type="line"/>
      <point x="90" y="582" type="line"/>
    </contour>
  </outline>
</glyph>
<glyph name="logicalnot" format="2">
  <advance width="750"/>
  <unicode hex="00AC"/>
  <outline>
    <contour>
      <point x="564" y="195" type="line"/>
      <point x="660" y="195" type="line"/>
      <point x="660" y="495" type="line"/>
      <point x="60" y="495" type="line"/>
      <point x="60" y="405" type="line"/>
      <point x="564" y="405" type="line"/>
    </contour>
  </outline>
</glyph>
<glyph name="hbar" format="2">
  <advance width="720"/>
  <unicode hex="0127"/>
  <outline>
    <contour>
      <point x="528" y="0" type="line"/>
      <point x="636" y="0" type="line"/>
      <point x="636" y="345" type="line" smooth="yes"/>
      <point x="636" y="514"/>
      <point x="522" y="612"/>
      <point x="395" y="612" type="curve" smooth="yes"/>
      <point x="347" y="612"/>
      <point x="302" y="599"/>
      <point x="264" y="573" type="curve"/>
      <point x="264" y="473" type="line"/>
      <point x="292" y="498"/>
      <point x="328" y="510"/>
      <point x="366" y="510" type="curve" smooth="yes"/>
      <point x="469" y="510"/>
      <point x="528" y="425"/>
      <point x="528" y="330" type="curve" smooth="yes"/>
    </contour>
    <contour>
      <point x="96" y="0" type="line"/>
      <point x="204" y="0" type="line"/>
      <point x="204" y="692" type="line"/>
      <point x="96" y="692" type="line"/>
    </contour>
    <contour>
      <point x="30" y="746" type="line"/>
      <point x="410" y="746" type="line"/>
      <point x="410" y="814" type="line"/>
      <point x="198" y="814" type="line"/>
      <point x="198" y="960" type="line"/>
      <point x="96" y="960" type="line"/>
      <point x="96" y="814" type="line"/>
      <point x="30" y="814" type="line"/>
    </contour>
  </outline>
</glyph>
<glyph name="tbar" format="2">
  <advance width="450"/>
  <unicode hex="0167"/>
  <outline>
    <contour>
      <point x="30" y="510" type="line"/>
      <point x="420" y="510" type="line"/>
      <point x="420" y="600" type="line"/>
      <point x="271" y="600" type="line"/>
      <point x="271" y="800" type="line"/>
      <point x="169" y="800" type="line"/>
      <point x="169" y="600" type="line"/>
      <point x="30" y="600" type="line"/>
    </contour>
    <contour>
      <point x="166" y="0" type="line"/>
      <point x="274" y="0" type="line"/>
      <point x="274" y="212" type="line"/>
      <point x="166" y="212" type="line"/>
    </contour>
    <contour>
      <point x="30" y="266" type="line"/>
      <point x="410" y="266" type="line"/>
      <point x="410" y="334" type="line"/>
      <point x="274" y="334" type="line"/>
      <point x="274" y="456" type="line"/>
      <point x="166" y="456" type="line"/>
      <point x="166" y="334" type="line"/>
      <point x="30" y="334" type="line"/>
    </contour>
  </outline>
</glyph>
<glyph name="hungarumlautcomb" format="2">
  <unicode hex="030B"/>
  <anchor x="310" y="600" name="_top"/>
  <outline>
    <contour>
      <point x="156" y="690" type="line"/>
      <point x="241" y="690" type="line"/>
      <point x="342" y="870" type="line"/>
      <point x="222" y="870" type="line"/>
    </contour>
    <contour>
      <point x="378" y="690" type="line"/>
      <point x="463" y="690" type="line"/>
      <point x="564" y="870" type="line"/>
      <point x="444" y="870" type="line"/>
    </contour>
  </outline>
</glyph>
<glyph name="caroncomb" format="2">
  <unicode hex="030C"/>
  <anchor x="360" y="600" name="_top"/>
  <outline>
    <contour>
      <point x="360" y="681" type="line"/>
      <point x="549" y="900" type="line"/>
      <point x="439" y="900" type="line"/>
      <point x="411" y="872"/>
      <point x="391" y="844"/>
      <point x="362" y="803" type="curve"/>
      <point x="333" y="844"/>
      <point x="313" y="872"/>
      <point x="285" y="900" type="curve"/>
      <point x="171" y="900" type="line"/>
    </contour>
  </outline>
</glyph>
<glyph name="daggerdbl" format="2">
  <advance width="600"/>
  <unicode hex="2021"/>
  <outline>
    <contour>
      <point x="250" y="480" type="line"/>
      <point x="350" y="480" type="line"/>
      <point x="347" y="654" type="line"/>
      <point x="306" y="588" type="line"/>
      <point x="528" y="585" type="line"/>
      <point x="528" y="675" type="line"/>
      <point x="347" y="672" type="line"/>
      <point x="354" y="900" type="line"/>
      <point x="246" y="900" type="line"/>
      <point x="253" y="672" type="line"/>
      <point x="72" y="675" type="line"/>
      <point x="72" y="585" type="line"/>
      <point x="294" y="588" type="line"/>
      <point x="253" y="654" type="line"/>
    </contour>
    <contour>
      <point x="246" y="0" type="line"/>
      <point x="354" y="0" type="line"/>
      <point x="347" y="228" type="line"/>
      <point x="528" y="225" type="line"/>
      <point x="528" y="315" type="line"/>
      <point x="306" y="312" type="line"/>
      <point x="347" y="246" type="line"/>
      <point x="350" y="420" type="line"/>
      <point x="250" y="420" type="line"/>
      <point x="253" y="246" type="line"/>
      <point x="294" y="312" type="line"/>
      <point x="72" y="315" type="line"/>
      <point x="72" y="225" type="line"/>
      <point x="253" y="228" type="line"/>
    </contour>
  </outline>
</glyph>
<glyph name="euro" format="2">
  <advance width="750"/>
  <unicode hex="20AC"/>
  <outline>
    <contour>
      <point x="191" y="529" type="curve"/>
      <point x="305" y="529" type="line"/>
      <point x="320" y="653"/>
      <point x="368" y="773"/>
      <point x="456" y="803" type="curve"/>
      <point x="456" y="908" type="line"/>
      <point x="299" y="881"/>
      <point x="211" y="712"/>
    </contour>
    <contour>
      <point x="456" y="-8" type="curve"/>
      <point x="456" y="98" type="line"/>
      <point x="370" y="128"/>
      <point x="322" y="241"/>
      <point x="307" y="361" type="curve"/>
      <point x="192" y="361" type="line"/>
      <point x="214" y="182"/>
      <point x="301" y="20"/>
    </contour>
    <contour>
      <point x="90" y="318" type="line"/>
      <point x="540" y="318" type="line"/>
      <point x="540" y="402" type="line"/>
      <point x="90" y="402" type="line"/>
    </contour>
    <contour>
      <point x="516" y="-12" type="line"/>
      <point x="587" y="-8"/>
      <point x="644" y="22"/>
      <point x="690" y="70" type="curve"/>
      <point x="656" y="209" type="line"/>
      <point x="625" y="144"/>
      <point x="580" y="97"/>
      <point x="516" y="91" type="curve"/>
    </contour>
    <contour>
      <point x="90" y="498" type="line"/>
      <point x="540" y="498" type="line"/>
      <point x="540" y="582" type="line"/>
      <point x="90" y="582" type="line"/>
    </contour>
    <contour>
      <point x="656" y="692" type="curve"/>
      <point x="690" y="830" type="line"/>
      <point x="644" y="878"/>
      <point x="586" y="908"/>
      <point x="516" y="912" type="curve"/>
      <point x="516" y="809" type="line"/>
      <point x="579" y="803"/>
      <point x="625" y="756"/>
    </contour>
  </outline>
</glyph>
<glyph name="trademark" format="2">
  <advance width="840"/>
  <unicode hex="2122"/>
  <outline>
    <contour>
      <point x="586" y="546" type="line"/>
      <point x="780" y="797" type="line"/>
      <point x="780" y="933" type="line"/>
      <point x="588" y="667" type="line"/>
      <point x="396" y="930" type="line"/>
      <point x="396" y="795" type="line"/>
    </contour>
    <contour>
      <point x="138" y="540" type="line"/>
      <point x="222" y="540" type="line"/>
      <point x="222" y="774" type="line"/>
      <point x="138" y="774" type="line"/>
    </contour>
    <contour>
      <point x="36" y="822" type="line"/>
      <point x="324" y="822" type="line"/>
      <point x="324" y="900" type="line"/>
      <point x="36" y="900" type="line"/>
    </contour>
    <contour>
      <point x="396" y="540" type="line"/>
      <point x="474" y="540" type="line"/>
      <point x="474" y="615" type="line"/>
      <point x="396" y="717" type="line"/>
    </contour>
    <contour>
      <point x="696" y="540" type="line"/>
      <point x="780" y="540" type="line"/>
      <point x="780" y="720" type="line"/>
      <point x="696" y="611" type="line"/>
    </contour>
  </outline>
</glyph>
<glyph name="a.ss02" format="2">
  <advance width="690"/>
  <anchor x="333" y="0" name="bottom"/>
  <anchor x="556" y="0" name="ogonek"/>
  <anchor x="342" y="600" name="top"/>
  <outline>
    <contour>
      <point x="284" y="-8" type="curve" smooth="yes"/>
      <point x="343" y="-8"/>
      <point x="399" y="8"/>
      <point x="446" y="41" type="curve"/>
      <point x="446" y="136" type="line"/>
      <point x="406" y="102"/>
      <point x="350" y="82"/>
      <point x="294" y="82" type="curve" smooth="yes"/>
      <point x="208" y="82"/>
      <point x="162" y="128"/>
      <point x="162" y="184" type="curve" smooth="yes"/>
      <point x="162" y="251"/>
      <point x="228" y="288"/>
      <point x="321" y="288" type="curve" smooth="yes"/>
      <point x="362" y="288"/>
      <point x="406" y="281"/>
      <point x="446" y="269" type="curve"/>
      <point x="446" y="357" type="line"/>
      <point x="406" y="371"/>
      <point x="362" y="378"/>
      <point x="314" y="378" type="curve" smooth="yes"/>
      <point x="165" y="378"/>
      <point x="54" y="306"/>
      <point x="54" y="184" type="curve" smooth="yes"/>
      <point x="54" y="69"/>
      <point x="153" y="-8"/>
    </contour>
    <contour>
      <point x="130" y="429" type="line"/>
      <point x="170" y="473"/>
      <point x="226" y="504"/>
      <point x="294" y="511" type="curve"/>
      <point x="294" y="607" type="line"/>
      <point x="218" y="601"/>
      <point x="152" y="575"/>
      <point x="102" y="541" type="curve"/>
    </contour>
    <contour>
      <point x="506" y="0" type="line"/>
      <point x="606" y="0" type="line"/>
      <point x="606" y="368" type="line" smooth="yes"/>
      <point x="606" y="508"/>
      <point x="503" y="597"/>
      <point x="358" y="607" type="curve"/>
      <point x="358" y="511" type="line"/>
      <point x="455" y="499"/>
      <point x="506" y="429"/>
      <point x="506" y="348" type="curve" smooth="yes"/>
    </contour>
  </outline>
</glyph>
<glyph name="acutecomb.case" format="2">
  <anchor x="270" y="900" name="_top"/>
  <anchor x="432" y="1170" name="top"/>
  <outline>
    <contour>
      <point x="216" y="990" type="line"/>
      <point x="324" y="990" type="line"/>
      <point x="504" y="1170" type="line"/>
      <point x="360" y="1170" type="line"/>
    </contour>
  </outline>
</glyph>
<glyph name="brevecomb_acutecomb" format="2">
  <anchor x="360" y="600" name="_top"/>
  <outline>
    <contour>
      <point x="360" y="675" type="curve" smooth="yes"/>
      <point x="461" y="675"/>
      <point x="540" y="749"/>
      <point x="540" y="849" type="curve"/>
      <point x="456" y="849" type="line"/>
      <point x="456" y="796"/>
      <point x="411" y="753"/>
      <point x="360" y="753" type="curve" smooth="yes"/>
      <point x="309" y="753"/>
      <point x="264" y="796"/>
      <point x="264" y="849" type="curve"/>
      <point x="180" y="849" type="line"/>
      <point x="180" y="750"/>
      <point x="260" y="675"/>
    </contour>
    <contour>
      <point x="306" y="879" type="line"/>
      <point x="390" y="879" type="line"/>
      <point x="494" y="1029" type="line"/>
      <point x="382" y="1029" type="line"/>
    </contour>
  </outline>
</glyph>
<glyph name="dek.lf" format="2">
  <advance width="690"/>
  <outline>
    <contour>
      <point x="322" y="-10" type="curve"/>
      <point x="322" y="93" type="line"/>
      <point x="250" y="106"/>
      <point x="196" y="169"/>
      <point x="196" y="245" type="curve" smooth="yes"/>
      <point x="196" y="277"/>
      <point x="207" y="313"/>
      <point x="240" y="363" type="curve" smooth="yes"/>
      <point x="601" y="900" type="line"/>
      <point x="481" y="900" type="line"/>
      <point x="151" y="421" type="line" smooth="yes"/>
      <point x="105" y="354"/>
      <point x="88" y="302"/>
      <point x="88" y="245" type="curve" smooth="yes"/>
      <point x="88" y="110"/>
      <point x="191" y="3"/>
    </contour>
    <contour>
      <point x="386" y="-10" type="line"/>
      <point x="515" y="4"/>
      <point x="619" y="110"/>
      <point x="619" y="245" type="curve" smooth="yes"/>
      <point x="619" y="287"/>
      <point x="608" y="326"/>
      <point x="587" y="366" type="curve"/>
      <point x="450" y="366" type="line"/>
      <point x="491" y="333"/>
      <point x="511" y="291"/>
      <point x="511" y="245" type="curve" smooth="yes"/>
      <point x="511" y="169"/>
      <point x="457" y="106"/>
      <point x="386" y="93" type="curve"/>
    </contour>
    <contour>
      <point x="71" y="798" type="line"/>
      <point x="344" y="798" type="line"/>
      <point x="415" y="900" type="line"/>
      <point x="71" y="900" type="line"/>
    </contour>
  </outline>
</glyph>
<glyph name="dek.numr" format="2">
  <advance width="480"/>
  <outline>
    <contour>
      <point x="226" y="411" type="curve"/>
      <point x="226" y="494" type="line"/>
      <point x="196" y="505"/>
      <point x="180" y="530"/>
      <point x="180" y="559" type="curve" smooth="yes"/>
      <point x="180" y="581"/>
      <point x="185" y="602"/>
      <point x="212" y="638" type="curve" smooth="yes"/>
      <point x="410" y="900" type="line"/>
      <point x="316" y="900" type="line"/>
      <point x="149" y="686" type="line"/>
      <point x="110" y="636"/>
      <point x="94" y="600"/>
      <point x="94" y="561" type="curve" smooth="yes"/>
      <point x="94" y="486"/>
      <point x="148" y="422"/>
    </contour>
    <contour>
      <point x="282" y="411" type="line"/>
      <point x="359" y="423"/>
      <point x="414" y="484"/>
      <point x="414" y="562" type="curve" smooth="yes"/>
      <point x="414" y="581"/>
      <point x="410" y="600"/>
      <point x="401" y="618" type="curve"/>
      <point x="309" y="618" type="line"/>
      <point x="323" y="600"/>
      <point x="328" y="582"/>
      <point x="328" y="563" type="curve" smooth="yes"/>
      <point x="328" y="528"/>
      <point x="310" y="503"/>
      <point x="282" y="493" type="curve"/>
    </contour>
    <contour>
      <point x="66" y="820" type="line"/>
      <point x="188" y="820" type="line"/>
      <point x="250" y="900" type="line"/>
      <point x="66" y="900" type="line"/>
    </contour>
  </outline>
</glyph>
<glyph name="dieresiscomb.vertical.A" format="2">
  <anchor x="360" y="540" name="_top-vertical"/>
  <outline>
    <contour>
      <point x="311" y="351" type="curve" smooth="yes"/>
      <point x="350" y="351"/>
      <point x="380" y="381"/>
      <point x="380" y="420" type="curve" smooth="yes"/>
      <point x="380" y="458"/>
      <point x="350" y="489"/>
      <point x="311" y="489" type="curve" smooth="yes"/>
      <point x="273" y="489"/>
      <point x="242" y="458"/>
      <point x="242" y="420" type="curve" smooth="yes"/>
      <point x="242" y="381"/>
      <point x="273" y="351"/>
    </contour>
    <contour>
      <point x="409" y="591" type="curve" smooth="yes"/>
      <point x="448" y="591"/>
      <point x="478" y="621"/>
      <point x="478" y="660" type="curve" smooth="yes"/>
      <point x="478" y="698"/>
      <point x="448" y="729"/>
      <point x="409" y="729" type="curve" smooth="yes"/>
      <point x="371" y="729"/>
      <point x="340" y="698"/>
      <point x="340" y="660" type="curve" smooth="yes"/>
      <point x="340" y="621"/>
      <point x="371" y="591"/>
    </contour>
  </outline>
</glyph>
<glyph name="eight.numr" format="2">
  <advance width="480"/>
  <outline>
    <contour>
      <point x="268" y="409" type="line"/>
      <point x="356" y="418"/>
      <point x="425" y="488"/>
      <point x="425" y="577" type="curve" smooth="yes"/>
      <point x="425" y="648"/>
      <point x="382" y="705"/>
      <point x="323" y="730" type="curve"/>
      <point x="334" y="699" type="line"/>
      <point x="359" y="720"/>
      <point x="379" y="751"/>
      <point x="379" y="790" type="curve" smooth="yes"/>
      <point x="379" y="853"/>
      <point x="331" y="902"/>
      <point x="268" y="911" type="curve"/>
      <point x="268" y="836" type="line"/>
      <point x="290" y="829"/>
      <point x="304" y="809"/>
      <point x="304" y="786" type="curve" smooth="yes"/>
      <point x="304" y="763"/>
      <point x="290" y="743"/>
      <point x="268" y="736" type="curve"/>
      <point x="268" y="666" type="line"/>
      <point x="311" y="658"/>
      <point x="340" y="623"/>
      <point x="340" y="578" type="curve" smooth="yes"/>
      <point x="340" y="533"/>
      <point x="311" y="498"/>
      <point x="268" y="490" type="curve"/>
    </contour>
    <contour>
      <point x="212" y="409" type="curve"/>
      <point x="212" y="490" type="line"/>
      <point x="169" y="498"/>
      <point x="140" y="533"/>
      <point x="140" y="578" type="curve" smooth="yes"/>
      <point x="140" y="623"/>
      <point x="169" y="658"/>
      <point x="212" y="666" type="curve"/>
      <point x="212" y="736" type="line"/>
      <point x="190" y="744"/>
      <point x="176" y="763"/>
      <point x="176" y="786" type="curve" smooth="yes"/>
      <point x="176" y="809"/>
      <point x="190" y="828"/>
      <point x="212" y="836" type="curve"/>
      <point x="212" y="911" type="line"/>
      <point x="149" y="902"/>
      <point x="101" y="853"/>
      <point x="101" y="790" type="curve" smooth="yes"/>
      <point x="101" y="751"/>
      <point x="120" y="720"/>
      <point x="146" y="699" type="curve"/>
      <point x="157" y="730" type="line"/>
      <point x="98" y="705"/>
      <point x="55" y="648"/>
      <point x="55" y="577" type="curve" smooth="yes"/>
      <point x="55" y="489"/>
      <point x="124" y="419"/>
    </contour>
  </outline>
</glyph>
<glyph name="hyphen.titl.case" format="2">
  <advance width="360"/>
  <outline>
    <contour>
      <point x="30" y="424" type="line"/>
      <point x="330" y="424" type="line"/>
      <point x="330" y="476" type="line"/>
      <point x="30" y="476" type="line"/>
    </contour>
  </outline>
</glyph>
<glyph name="less.titl" format="2">
  <advance width="750"/>
  <outline>
    <contour>
      <point x="660" y="173" type="line"/>
      <point x="660" y="229" type="line"/>
      <point x="308" y="399" type="line" smooth="yes"/>
      <point x="271" y="417"/>
      <point x="231" y="434"/>
      <point x="190" y="451" type="curve"/>
      <point x="231" y="467"/>
      <point x="271" y="484"/>
      <point x="308" y="502" type="curve" smooth="yes"/>
      <point x="660" y="672" type="line"/>
      <point x="660" y="729" type="line"/>
      <point x="90" y="452" type="line"/>
    </contour>
  </outline>
</glyph>
<glyph name="two.numr" format="2">
  <advance width="480"/>
  <outline>
    <contour>
      <point x="70" y="420" type="line"/>
      <point x="164" y="420" type="line"/>
      <point x="331" y="634" type="line"/>
      <point x="370" y="684"/>
      <point x="386" y="720"/>
      <point x="386" y="759" type="curve" smooth="yes"/>
      <point x="386" y="835"/>
      <point x="331" y="897"/>
      <point x="255" y="910" type="curve"/>
      <point x="255" y="827" type="line"/>
      <point x="283" y="816"/>
      <point x="300" y="790"/>
      <point x="300" y="761" type="curve" smooth="yes"/>
      <point x="300" y="739"/>
      <point x="295" y="718"/>
      <point x="268" y="682" type="curve" smooth="yes"/>
    </contour>
    <contour>
      <point x="230" y="420" type="line"/>
      <point x="414" y="420" type="line"/>
      <point x="414" y="500" type="line"/>
      <point x="291" y="500" type="line"/>
    </contour>
    <contour>
      <point x="79" y="702" type="curve"/>
      <point x="171" y="702" type="line"/>
      <point x="157" y="720"/>
      <point x="152" y="738"/>
      <point x="152" y="757" type="curve" smooth="yes"/>
      <point x="152" y="792"/>
      <point x="170" y="817"/>
      <point x="199" y="827" type="curve"/>
      <point x="199" y="910" type="line"/>
      <point x="121" y="897"/>
      <point x="66" y="836"/>
      <point x="66" y="758" type="curve" smooth="yes"/>
      <point x="66" y="739"/>
      <point x="70" y="720"/>
    </contour>
  </outline>
</glyph>
<glyph name="zero.lf" format="2">
  <advance width="750"/>
  <outline>
    <contour>
      <point x="407" y="-10" type="line"/>
      <point x="596" y="12"/>
      <point x="690" y="234"/>
      <point x="690" y="450" type="curve" smooth="yes"/>
      <point x="690" y="666"/>
      <point x="596" y="888"/>
      <point x="407" y="910" type="curve"/>
      <point x="407" y="807" type="line"/>
      <point x="524" y="780"/>
      <point x="576" y="605"/>
      <point x="576" y="450" type="curve" smooth="yes"/>
      <point x="576" y="295"/>
      <point x="524" y="120"/>
      <point x="407" y="93" type="curve"/>
    </contour>
    <contour>
      <point x="343" y="-10" type="curve"/>
      <point x="343" y="93" type="line"/>
      <point x="226" y="120"/>
      <point x="174" y="295"/>
      <point x="174" y="450" type="curve" smooth="yes"/>
      <point x="174" y="605"/>
      <point x="226" y="780"/>
      <point x="343" y="807" type="curve"/>
      <point x="343" y="910" type="line"/>
      <point x="154" y="888"/>
      <point x="60" y="666"/>
      <point x="60" y="450" type="curve" smooth="yes"/>
      <point x="60" y="234"/>
      <point x="154" y="12"/>
    </contour>
  </outline>
</glyph>
